<svg width="1361" height="333" viewBox="0 0 1361 333" fill="none" xmlns="http://www.w3.org/2000/svg">
<g id="Group 2">
<g id="Group 32">
<path id="Path Copy" fill-rule="evenodd" clip-rule="evenodd" d="M303.784 29.308C313.937 39.461 321.115 52.588 323.923 67.295L324.05 67.9749L324.404 69.9464C335.866 134.356 335.865 198.76 324.401 263.165L324.05 265.116L323.882 266.013C318.205 295.263 295.246 318.213 265.996 323.892L265.108 324.059L263.136 324.413C198.733 335.863 134.33 335.862 69.9323 324.41L67.9809 324.059L67.0836 323.891C52.4603 321.05 39.4113 313.891 29.308 303.788L303.784 29.308Z" fill="#1CEA91"/>
<path id="Path Copy 2" fill-rule="evenodd" clip-rule="evenodd" d="M166.452 0L168.384 0.00344271C199.949 0.115904 231.519 2.98361 263.083 8.60106L265.016 8.94842L265.913 9.11677C280.537 11.955 293.588 19.1132 303.692 29.2172L29.2142 303.692C19.0619 293.539 11.8841 280.412 9.07211 265.702L8.94543 265.022L8.59119 263.051C-2.8649 198.648 -2.86373 134.245 8.5947 69.8359L8.94543 67.8841L9.11397 66.9871C14.854 37.4488 38.2149 14.3251 67.8881 8.94842C100.096 3.1018 132.305 0.118199 164.519 0.00344271L166.452 0Z" fill="#0098FF"/>
<path id="Fill 743 Copy" fill-rule="evenodd" clip-rule="evenodd" d="M260.126 164.518L268.593 172.979C272.346 176.733 274.384 181.707 274.384 186.91C274.384 187.721 274.334 188.539 274.223 189.375C272.043 207.022 261.47 226.471 245.224 242.712C228.996 258.959 209.548 269.519 191.889 271.706C185.813 272.455 179.849 270.399 175.507 266.057L167.04 257.59C163.962 254.505 163.962 249.494 167.04 246.428L185.659 227.815C187.145 226.329 189.133 225.499 191.239 225.499C193.345 225.499 195.327 226.316 196.813 227.815L207.064 238.054L240.572 204.538L230.328 194.299C227.25 191.215 227.25 186.21 230.328 183.131L248.946 164.518C252.025 161.434 257.041 161.434 260.126 164.518Z" fill="white"/>
<path id="Fill 745 Copy" fill-rule="evenodd" clip-rule="evenodd" d="M88.2419 173.378L82.9154 131.857L140.135 105.187C141.78 104.404 141.06 102.634 139.421 103.1L77.8745 117.597L56.5127 81.5106C53.7316 76.8524 57.5991 71.1693 62.8015 71.8028L174.328 86.0447C179.531 86.6844 181.753 93.1252 178.059 96.8456L99.1183 176.937C95.3563 180.781 88.8751 178.57 88.2481 173.384L88.2419 173.378Z" fill="white"/>
</g>
<path id="SIP.TG" fill-rule="evenodd" clip-rule="evenodd" d="M524.892 252C544.324 252 559.521 247.098 570.482 237.293C581.444 227.488 586.924 215.855 586.924 202.394C586.924 190.097 582.814 179.959 574.593 171.983C566.371 164.006 555.119 159.103 540.836 157.275L512.436 153.536C493.834 151.21 484.534 142.9 484.534 128.609C484.534 120.964 487.731 114.442 494.125 109.041C500.519 103.64 509.612 100.939 521.404 100.939C531.037 100.939 539.632 103.1 547.189 107.42C554.746 111.741 560.268 117.391 563.756 124.371H587.423C583.935 112.738 576.503 102.435 565.126 93.4609C553.749 84.487 539.424 80 522.152 80C503.716 80 489.101 84.57 478.306 93.7101C467.51 102.85 462.112 114.815 462.112 129.606C462.112 141.737 465.725 151.708 472.949 159.519C480.174 167.329 491.094 172.232 505.709 174.226L532.366 177.716C543.493 179.045 551.632 181.746 556.78 185.817C561.929 189.889 564.503 195.83 564.503 203.641C564.503 211.285 560.766 217.766 553.292 223.084C545.819 228.402 536.352 231.061 524.892 231.061C515.093 231.061 506.415 228.942 498.858 224.704C491.302 220.467 485.53 214.775 481.544 207.629H457.877C461.697 219.76 469.171 230.188 480.299 238.913C491.426 247.638 506.291 252 524.892 252ZM732.971 248.942V227.957H688.872V104.043H732.971V83.0578H622.476V104.043H666.575V227.957H622.476V248.942H732.971ZM797.228 180.49V248.942H774.882V83.0578H843.409C859.299 83.0578 872.045 87.3881 881.645 96.0487C891.245 104.543 896.045 116.451 896.045 131.774C896.045 147.097 891.245 159.047 881.645 167.624C872.045 176.201 859.299 180.49 843.409 180.49H797.228ZM843.762 158.738H797.743V103.698H843.762C852.834 103.698 860.133 106.094 865.658 110.888C871.184 115.681 873.947 122.458 873.947 131.218C873.947 139.978 871.143 146.755 865.534 151.548C860.091 156.341 852.834 158.738 843.762 158.738ZM1004.25 210.72V248.178H967.676V210.72H1004.25ZM1151.08 248.942V104.043H1209.24V83.0578H1070.55V104.043H1128.71V248.942H1151.08ZM1342.43 227.446C1330.63 243.815 1314.59 252 1294.32 252C1274.21 252 1257.93 243.94 1245.46 227.82C1233 211.7 1226.77 191.094 1226.77 166C1226.77 140.906 1233 120.3 1245.46 104.18C1257.93 88.0599 1274.21 80 1294.32 80C1308.11 80 1320.2 83.9469 1330.59 91.8406C1340.97 99.7343 1348.74 110.578 1353.89 124.371H1330.21C1322.07 108.75 1310.1 100.939 1294.32 100.939C1280.52 100.939 1269.56 106.922 1261.41 118.887C1253.27 130.852 1249.2 146.557 1249.2 166C1249.2 185.443 1253.27 201.148 1261.41 213.113C1269.56 225.078 1280.52 231.061 1294.32 231.061C1306.12 231.061 1315.63 226.865 1322.86 218.472C1330.09 210.08 1334.61 198.489 1336.44 183.699H1290.58V162.759H1360.12C1360.12 189.515 1354.22 211.077 1342.43 227.446Z" fill="white"/>
</g>
</svg>
