<svg width="1001" height="333" viewBox="0 0 1001 333" fill="none" xmlns="http://www.w3.org/2000/svg">
<g id="Group 2">
<g id="Group 32">
<path id="Path Copy" fill-rule="evenodd" clip-rule="evenodd" d="M303.784 29.308C313.937 39.461 321.115 52.588 323.923 67.295L324.05 67.9749L324.404 69.9464C335.866 134.356 335.865 198.76 324.401 263.165L324.05 265.116L323.882 266.013C318.205 295.263 295.246 318.213 265.996 323.892L265.108 324.059L263.136 324.413C198.733 335.863 134.33 335.862 69.9323 324.41L67.9809 324.059L67.0836 323.891C52.4603 321.05 39.4113 313.891 29.308 303.788L303.784 29.308Z" fill="#1CEA91"/>
<path id="Path Copy 2" fill-rule="evenodd" clip-rule="evenodd" d="M166.452 0L168.384 0.00344271C199.949 0.115904 231.519 2.98361 263.083 8.60106L265.016 8.94842L265.913 9.11677C280.537 11.955 293.588 19.1132 303.692 29.2172L29.2142 303.692C19.0619 293.539 11.8841 280.412 9.07211 265.702L8.94543 265.022L8.59119 263.051C-2.8649 198.648 -2.86373 134.245 8.5947 69.8359L8.94543 67.8841L9.11397 66.9871C14.854 37.4488 38.2149 14.3251 67.8881 8.94842C100.096 3.1018 132.305 0.118199 164.519 0.00344271L166.452 0Z" fill="#0098FF"/>
<path id="Fill 743 Copy" fill-rule="evenodd" clip-rule="evenodd" d="M260.126 164.518L268.593 172.979C272.346 176.733 274.384 181.707 274.384 186.91C274.384 187.721 274.334 188.539 274.223 189.375C272.043 207.022 261.47 226.471 245.224 242.712C228.996 258.959 209.548 269.519 191.889 271.706C185.813 272.455 179.849 270.399 175.507 266.057L167.04 257.59C163.962 254.505 163.962 249.494 167.04 246.428L185.659 227.815C187.145 226.329 189.133 225.499 191.239 225.499C193.345 225.499 195.327 226.316 196.813 227.815L207.064 238.054L240.572 204.538L230.328 194.299C227.25 191.215 227.25 186.21 230.328 183.131L248.946 164.518C252.025 161.434 257.041 161.434 260.126 164.518Z" fill="white"/>
<path id="Fill 745 Copy" fill-rule="evenodd" clip-rule="evenodd" d="M88.2419 173.378L82.9154 131.857L140.135 105.187C141.78 104.404 141.06 102.634 139.421 103.1L77.8745 117.597L56.5127 81.5106C53.7316 76.8524 57.5991 71.1693 62.8015 71.8028L174.328 86.0447C179.531 86.6844 181.753 93.1252 178.059 96.8456L99.1183 176.937C95.3563 180.781 88.8751 178.57 88.2481 173.384L88.2419 173.378Z" fill="white"/>
</g>
<path id="SIP.TG" fill-rule="evenodd" clip-rule="evenodd" d="M447.417 223C460.296 223 470.368 219.751 477.633 213.252C484.899 206.754 488.531 199.043 488.531 190.122C488.531 181.971 485.807 175.252 480.358 169.965C474.909 164.678 467.451 161.429 457.984 160.217L439.161 157.739C426.832 156.197 420.668 150.69 420.668 141.217C420.668 136.151 422.787 131.828 427.025 128.248C431.263 124.668 437.29 122.878 445.105 122.878C451.49 122.878 457.186 124.31 462.195 127.174C467.203 130.038 470.864 133.783 473.175 138.409H488.861C486.55 130.699 481.624 123.87 474.083 117.922C466.543 111.974 457.049 109 445.601 109C433.382 109 423.695 112.029 416.54 118.087C409.385 124.145 405.807 132.075 405.807 141.878C405.807 149.919 408.201 156.528 412.99 161.704C417.778 166.881 425.016 170.13 434.703 171.452L452.37 173.765C459.746 174.646 465.139 176.436 468.552 179.135C471.964 181.833 473.671 185.771 473.671 190.948C473.671 196.014 471.194 200.31 466.24 203.835C461.287 207.359 455.012 209.122 447.417 209.122C440.922 209.122 435.171 207.717 430.162 204.909C425.153 202.1 421.328 198.328 418.686 193.591H403C405.532 201.632 410.485 208.543 417.861 214.326C425.236 220.109 435.088 223 447.417 223ZM585.329 220.973V207.064H556.101V124.936H585.329V111.027H512.095V124.936H541.323V207.064H512.095V220.973H585.329ZM627.919 175.604V220.973H613.108V111.027H658.527C669.059 111.027 677.506 113.897 683.869 119.637C690.232 125.267 693.414 133.16 693.414 143.315C693.414 153.471 690.232 161.391 683.869 167.076C677.506 172.761 669.059 175.604 658.527 175.604H627.919ZM658.761 161.187H628.26V124.707H658.761C664.774 124.707 669.611 126.295 673.273 129.472C676.936 132.649 678.767 137.141 678.767 142.947C678.767 148.753 676.908 153.244 673.191 156.421C669.584 159.598 664.774 161.187 658.761 161.187ZM765.133 195.64V220.467H740.89V195.64H765.133ZM862.449 220.973V124.936H900.997V111.027H809.074V124.936H847.622V220.973H862.449ZM989.27 206.726C981.45 217.575 970.822 223 957.385 223C944.058 223 933.264 217.658 925.004 206.974C916.743 196.29 912.613 182.632 912.613 166C912.613 149.368 916.743 135.71 925.004 125.026C933.264 114.342 944.058 109 957.385 109C966.526 109 974.539 111.616 981.423 116.848C988.306 122.08 993.455 129.267 996.87 138.409H981.175C975.778 128.055 967.848 122.878 957.385 122.878C948.243 122.878 940.974 126.843 935.577 134.774C930.18 142.704 927.482 153.113 927.482 166C927.482 178.887 930.18 189.296 935.577 197.226C940.974 205.157 948.243 209.122 957.385 209.122C965.205 209.122 971.51 206.341 976.301 200.778C981.092 195.216 984.094 187.533 985.305 177.73H954.907V163.852H1001C1001 181.586 997.09 195.877 989.27 206.726Z" fill="white"/>
</g>
</svg>
