<svg width="1470" height="333" viewBox="0 0 1470 333" fill="none" xmlns="http://www.w3.org/2000/svg">
<g id="Group 2">
<g id="Group 32">
<path id="Path Copy" fill-rule="evenodd" clip-rule="evenodd" d="M303.784 29.308C313.937 39.461 321.115 52.588 323.923 67.295L324.05 67.9749L324.404 69.9464C335.866 134.356 335.865 198.76 324.401 263.165L324.05 265.116L323.882 266.013C318.205 295.263 295.246 318.213 265.996 323.892L265.108 324.059L263.136 324.413C198.733 335.863 134.33 335.862 69.9323 324.41L67.9809 324.059L67.0836 323.891C52.4603 321.05 39.4113 313.891 29.308 303.788L303.784 29.308Z" fill="#1CEA91"/>
<path id="Path Copy 2" fill-rule="evenodd" clip-rule="evenodd" d="M166.452 0L168.384 0.00344271C199.949 0.115904 231.519 2.98361 263.083 8.60106L265.016 8.94842L265.913 9.11677C280.537 11.955 293.588 19.1132 303.692 29.2172L29.2142 303.692C19.0619 293.539 11.8841 280.412 9.07211 265.702L8.94543 265.022L8.59119 263.051C-2.8649 198.648 -2.86373 134.245 8.5947 69.8359L8.94543 67.8841L9.11397 66.9871C14.854 37.4488 38.2149 14.3251 67.8881 8.94842C100.096 3.1018 132.305 0.118199 164.519 0.00344271L166.452 0Z" fill="#0098FF"/>
<path id="Fill 743 Copy" fill-rule="evenodd" clip-rule="evenodd" d="M260.126 164.518L268.593 172.979C272.346 176.733 274.384 181.707 274.384 186.91C274.384 187.721 274.334 188.539 274.223 189.375C272.043 207.022 261.47 226.471 245.224 242.712C228.996 258.959 209.548 269.519 191.889 271.706C185.813 272.455 179.849 270.399 175.507 266.057L167.04 257.59C163.962 254.505 163.962 249.494 167.04 246.428L185.659 227.815C187.145 226.329 189.133 225.499 191.239 225.499C193.345 225.499 195.327 226.316 196.813 227.815L207.064 238.054L240.572 204.538L230.328 194.299C227.25 191.215 227.25 186.21 230.328 183.131L248.946 164.518C252.025 161.434 257.041 161.434 260.126 164.518Z" fill="white"/>
<path id="Fill 745 Copy" fill-rule="evenodd" clip-rule="evenodd" d="M88.2419 173.378L82.9154 131.857L140.135 105.187C141.78 104.404 141.06 102.634 139.421 103.1L77.8745 117.597L56.5127 81.5106C53.7316 76.8524 57.5991 71.1693 62.8015 71.8028L174.328 86.0447C179.531 86.6844 181.753 93.1252 178.059 96.8456L99.1183 176.937C95.3563 180.781 88.8751 178.57 88.2481 173.384L88.2419 173.378Z" fill="white"/>
</g>
<path id="SIP.TG" fill-rule="evenodd" clip-rule="evenodd" d="M516.504 260.355C538.687 260.355 556.036 254.758 568.549 243.565C581.063 232.372 587.32 219.092 587.32 203.725C587.32 189.686 582.627 178.113 573.242 169.007C563.857 159.901 551.011 154.304 534.706 152.217L502.284 147.949C481.049 145.293 470.431 135.807 470.431 119.491C470.431 110.765 474.081 103.318 481.38 97.1526C488.68 90.9869 499.061 87.904 512.522 87.904C523.519 87.904 533.331 90.3703 541.958 95.3029C550.585 100.235 556.889 106.686 560.87 114.654H587.889C583.907 101.374 575.422 89.6115 562.435 79.3669C549.447 69.1223 533.094 64 513.375 64C492.33 64 475.645 69.2171 463.321 79.6514C450.997 90.0857 444.835 103.745 444.835 120.63C444.835 134.479 448.959 145.862 457.206 154.778C465.454 163.695 477.92 169.292 494.605 171.568L525.036 175.552C537.739 177.07 547.03 180.153 552.907 184.801C558.785 189.449 561.724 196.231 561.724 205.148C561.724 213.874 557.458 221.273 548.926 227.344C540.394 233.415 529.586 236.45 516.504 236.45C505.317 236.45 495.411 234.032 486.784 229.194C478.157 224.356 471.569 217.858 467.018 209.701H440C444.361 223.55 452.893 235.454 465.596 245.414C478.299 255.375 495.269 260.355 516.504 260.355ZM754.046 256.864V232.907H703.703V91.4476H754.046V67.4908H627.905V91.4476H678.248V232.907H627.905V256.864H754.046ZM827.402 178.719V256.864H801.892V67.4908H880.122C898.262 67.4908 912.812 72.4342 923.772 82.3212C934.731 92.018 940.211 105.613 940.211 123.105C940.211 140.597 934.731 154.239 923.772 164.031C912.812 173.823 898.262 178.719 880.122 178.719H827.402ZM880.525 153.887H827.99V91.0533H880.525C890.881 91.0533 899.213 93.7893 905.521 99.2613C911.829 104.733 914.983 112.469 914.983 122.47C914.983 132.471 911.782 140.207 905.38 145.679C899.166 151.151 890.881 153.887 880.525 153.887ZM1063.74 213.229V255.991H1021.98V213.229H1063.74ZM1231.36 256.864V91.4476H1297.75V67.4908H1139.43V91.4476H1205.82V256.864H1231.36ZM1449.8 232.324C1436.33 251.011 1418.02 260.355 1394.88 260.355C1371.92 260.355 1353.33 251.153 1339.1 232.751C1324.88 214.349 1317.76 190.824 1317.76 162.177C1317.76 133.53 1324.88 110.006 1339.1 91.6035C1353.33 73.2012 1371.92 64 1394.88 64C1410.62 64 1424.42 68.5057 1436.28 77.5172C1448.14 86.5286 1457.01 98.9075 1462.89 114.654H1435.85C1426.56 96.8206 1412.9 87.904 1394.88 87.904C1379.13 87.904 1366.61 94.7337 1357.32 108.393C1348.02 122.053 1343.37 139.981 1343.37 162.177C1343.37 184.374 1348.02 202.302 1357.32 215.961C1366.61 229.621 1379.13 236.45 1394.88 236.45C1408.35 236.45 1419.21 231.66 1427.46 222.08C1435.71 212.499 1440.88 199.266 1442.97 182.382H1390.61V158.478H1470C1470 189.022 1463.27 213.637 1449.8 232.324Z" fill="black"/>
</g>
</svg>
